<?xml version="1.0" encoding="utf-8"?>
<!-- Generator: Adobe Illustrator 26.0.3, SVG Export Plug-In . SVG Version: 6.00 Build 0)  -->
<svg version="1.1" id="Layer_1" xmlns="http://www.w3.org/2000/svg" xmlns:xlink="http://www.w3.org/1999/xlink" x="0px" y="0px"
	 viewBox="0 0 500 500" style="enable-background:new 0 0 500 500;" xml:space="preserve">
<style type="text/css">
	.st0{fill:#009EED;}
	.st1{fill:#13235B;}
	.st2{fill:#99B9FF;}
	.st3{fill:#FFFFFF;}
	.st4{clip-path:url(#SVGID_00000006680858040798570710000000205383308103633339_);}
	.st5{fill:#5479F7;}
	.st6{fill-rule:evenodd;clip-rule:evenodd;fill:#009EED;}
	.st7{fill:#01A0C6;}
	.st8{fill:#CADDFF;}
	.st9{fill:#FFFFFF;stroke:#13235B;stroke-width:17.417;stroke-miterlimit:10;}
	.st10{fill-rule:evenodd;clip-rule:evenodd;fill:#F2FFFF;}
	.st11{fill-rule:evenodd;clip-rule:evenodd;fill:#FFFFFF;}
</style>
<rect x="164.5" y="219.6" class="st10" width="166" height="53.6"/>
<path class="st0" d="M25,281.7l10.2,41.6l46.6-0.8c4,9.1,8.9,17.8,14.2,26.1l-25.7,38.8L99.9,418l40.1-24.2
	c8.1,5.7,16.5,11,25.4,15.5l-2.8,46.6l40.9,11.9l22.5-40.7c9.8,1.1,19.7,1.3,29.7,0.6l20.8,41.8l41.6-10.2l-0.8-46.6
	c9.1-4,17.8-8.9,26.1-14.2l38.8,25.7l30.7-29.5l-24.2-39.9c5.7-8.1,11-16.5,15.5-25.4l46.6,2.8l11.9-40.9l-40.7-22.9
	c1.1-9.8,1.3-19.7,0.6-29.7l41.8-20.8l-10.2-41.6l-46.6,0.8c-4-9.1-8.9-17.8-14.2-26.1l25.7-38.8l-29.7-31l-39.9,24.2
	c-8.1-5.7-16.5-11-25.4-15.5l2.8-46.6l-40.9-11.9l-22.5,40.7c-9.8-1.1-19.7-1.3-29.7-0.6l-21-41.6l-41.6,10.2l0.8,46.6
	c-9.1,4-17.8,8.9-26.1,14.2l-38.8-25.7l-30.7,29.7l24,39.9c-5.7,8.1-11,16.5-15.5,25.4l-46.6-2.8l-11.7,40.9L67.2,231
	c-1.1,9.8-1.3,19.7-0.6,29.7L25,281.7z M218.4,143c58.9-14.4,118.5,21.6,132.9,80.6s-21.6,118.5-80.6,132.9
	c-58.9,14.4-118.5-21.6-132.9-80.6C123.4,217,159.5,157.5,218.4,143z"/>
<g>
	<path class="st0" d="M227.5,197.5c6.6-7,15.9-11.2,26.1-11.2c13.6,0,25.4,7.6,31.8,18.9c5.5-2.5,11.4-3.8,18-3.8
		c24.4,0,44.3,19.9,44.3,44.7s-19.9,44.7-44.3,44.7c-3,0-5.9-0.2-8.7-0.8c-5.5,10-16.1,16.5-28.2,16.5c-5.1,0-10-1.3-14.2-3.2
		c-5.7,13.1-18.7,22.5-34.1,22.5c-15.9,0-29.5-10.2-34.8-24.2c-2.3,0.4-4.7,0.6-7,0.6c-18.9,0-34.3-15.5-34.3-34.8
		c0-12.9,7-24,17.2-30.1c-2.1-4.9-3.2-10.2-3.2-15.9c0-22,17.8-39.9,39.9-39.9C208.6,181.8,220.1,188,227.5,197.5"/>
	<path class="st3" d="M171.5,256.5c-0.2,0.4,0,0.4,0,0.4c0.4,0.2,0.8,0.4,1.3,0.6c2.1,1.1,4,1.5,6.1,1.5c4.2,0,6.8-2.3,6.8-5.9l0,0
		c0-3.4-3-4.5-5.7-5.5l-0.4-0.2c-2.1-0.6-3.8-1.3-3.8-2.5l0,0c0-1.3,1.1-2.1,2.8-2.1c1.9,0,4,0.6,5.3,1.3c0,0,0.4,0.2,0.6-0.2
		c0-0.2,0.8-2.1,0.8-2.3c0-0.2,0-0.4-0.2-0.4c-1.5-1.1-3.8-1.7-6.1-1.7h-0.4c-3.8,0-6.6,2.3-6.6,5.7l0,0c0,3.6,3,4.7,5.7,5.5
		l0.4,0.2c2.1,0.6,3.8,1.1,3.8,2.5l0,0c0,1.3-1.1,2.3-3,2.3c-0.6,0-3,0-5.5-1.5c-0.2-0.2-0.4-0.2-0.6-0.4c-0.2,0-0.4-0.2-0.6,0.2
		L171.5,256.5z"/>
	<path class="st3" d="M233.4,256.5c-0.2,0.4,0,0.4,0,0.4c0.4,0.2,0.8,0.4,1.3,0.6c2.1,1.1,4,1.5,6.1,1.5c4.2,0,6.8-2.3,6.8-5.9l0,0
		c0-3.4-3-4.5-5.7-5.5l-0.4-0.2c-2.1-0.6-3.8-1.3-3.8-2.5l0,0c0-1.3,1.1-2.1,2.8-2.1c1.9,0,4,0.6,5.3,1.3c0,0,0.4,0.2,0.6-0.2
		c0-0.2,0.8-2.1,0.8-2.3c0-0.2,0-0.4-0.2-0.4c-1.5-1.1-3.8-1.7-6.1-1.7h-0.4c-3.8,0-6.6,2.3-6.6,5.7l0,0c0,3.6,3,4.7,5.7,5.5
		l0.4,0.2c2.1,0.6,3.8,1.1,3.8,2.5l0,0c0,1.3-1.1,2.3-3,2.3c-0.6,0-3,0-5.5-1.5c-0.2-0.2-0.4-0.2-0.6-0.4c0,0-0.4-0.2-0.6,0.2
		L233.4,256.5z"/>
	<path class="st3" d="M279,245.7c-0.4-1.3-0.8-2.1-1.7-3c-0.6-0.8-1.7-1.5-2.8-2.1c-1.1-0.4-2.3-0.8-3.8-0.8c-1.5,0-2.8,0.2-3.8,0.8
		c-1.1,0.6-1.9,1.3-2.8,2.1c-0.6,0.8-1.3,1.9-1.7,3c-0.4,1.1-0.4,2.3-0.4,3.8c0,1.3,0.2,2.5,0.4,3.8c0.4,1.3,0.8,2.1,1.7,3
		c0.6,0.8,1.7,1.5,2.8,2.1c1.1,0.4,2.3,0.6,3.8,0.6s2.8-0.2,3.8-0.6c1.1-0.4,1.9-1.3,2.8-2.1c0.6-0.8,1.3-1.9,1.7-3
		c0.4-1.1,0.4-2.3,0.4-3.8C279.7,248.2,279.5,246.9,279,245.7 M275.6,249.5c0,2.1-0.4,3.6-1.1,4.9c-0.8,1.1-1.9,1.7-3.4,1.7
		c-1.5,0-2.8-0.6-3.4-1.7c-0.6-1.1-1.1-2.8-1.1-4.9c0-2.1,0.4-3.6,1.1-4.7c0.6-1.1,1.9-1.7,3.4-1.7c1.5,0,2.8,0.6,3.4,1.7
		C275.2,245.9,275.6,247.3,275.6,249.5"/>
	<path class="st11" d="M308.1,255.4c-0.2-0.4-0.4-0.2-0.4-0.2c-0.4,0.2-1.1,0.4-1.7,0.4s-1.3,0.2-1.9,0.2c-1.7,0-3-0.4-4-1.5
		c-1.1-1.1-1.5-2.5-1.5-4.9c0-1.9,0.4-3.4,1.3-4.7c0.8-1.1,2.1-1.7,3.8-1.7c1.5,0,2.5,0.2,3.8,0.6c0,0,0.2,0.2,0.4-0.2
		c0.2-0.8,0.6-1.5,0.8-2.3c0-0.2-0.2-0.4-0.2-0.4c-0.4-0.2-1.5-0.4-2.3-0.6c-0.8-0.2-1.7-0.2-2.5-0.2c-1.5,0-2.8,0.2-4,0.8
		c-1.1,0.4-2.1,1.3-2.8,2.1c-0.8,0.8-1.3,1.9-1.7,3c-0.4,1.1-0.6,2.5-0.6,3.8c0,3,0.8,5.3,2.3,7c1.5,1.7,3.8,2.5,7,2.5
		c1.9,0,3.6-0.4,5.1-0.8c0,0,0.2-0.2,0.2-0.4L308.1,255.4z"/>
	<path class="st11" d="M326.1,245c-0.2-1.1-1.1-2.3-1.5-2.8c-0.8-0.8-1.5-1.5-2.3-1.7c-1.1-0.4-2.1-0.6-3.4-0.6
		c-1.5,0-2.8,0.2-4,0.8c-1.1,0.4-2.1,1.3-2.8,2.1c-0.6,0.8-1.3,1.9-1.7,3.2c-0.4,1.3-0.4,2.5-0.4,3.8c0,1.3,0.2,2.8,0.6,3.8
		s0.8,2.1,1.7,3c0.8,0.8,1.7,1.5,3,1.9c1.3,0.4,2.8,0.6,4.2,0.6c3.4,0,5.3-0.8,5.9-1.3c0.2,0,0.2-0.2,0-0.6l-0.8-2.1
		c-0.2-0.4-0.4-0.2-0.4-0.2c-0.8,0.2-2.1,0.8-4.9,0.8c-1.9,0-3.2-0.6-4-1.5c-0.8-0.8-1.3-2.1-1.5-4h11.9c0,0,0.2,0,0.4-0.2
		C326.3,250.1,326.7,247.8,326.1,245 M314.2,247.6c0.2-1.1,0.4-2.1,1.1-2.8c0.6-1.1,1.9-1.7,3.4-1.7c1.5,0,2.5,0.6,3.4,1.7
		c0.4,0.6,0.6,1.7,0.8,2.8H314.2z"/>
	<path class="st11" d="M230.5,245c-0.2-1.1-1.1-2.3-1.5-2.8c-0.8-0.8-1.5-1.5-2.3-1.7c-1.1-0.4-2.1-0.6-3.4-0.6
		c-1.5,0-2.8,0.2-4,0.8c-1.1,0.4-2.1,1.3-2.8,2.1s-1.3,1.9-1.7,3.2s-0.4,2.5-0.4,3.8c0,1.3,0.2,2.8,0.6,3.8s0.8,2.1,1.7,3
		s1.7,1.5,3,1.9c1.3,0.4,2.8,0.6,4.2,0.6c3.4,0,5.3-0.8,5.9-1.3c0.2,0,0.2-0.2,0-0.6l-0.8-2.1c-0.2-0.4-0.4-0.2-0.4-0.2
		c-0.8,0.2-2.1,0.8-4.9,0.8c-1.9,0-3.2-0.6-4-1.5c-0.8-0.8-1.3-2.1-1.5-4h11.9c0,0,0.2,0,0.4-0.2C230.9,250.1,231.3,247.8,230.5,245
		 M218.6,247.6c0.2-1.1,0.4-2.1,1.1-2.8c0.6-1.1,1.9-1.7,3.4-1.7s2.5,0.6,3.4,1.7c0.4,0.6,0.6,1.7,0.8,2.8H218.6z"/>
	<path class="st3" d="M197.6,246.9c-0.4,0-1.1,0-1.9,0c-1.1,0-1.9,0.2-3,0.4c-0.8,0.2-1.7,0.6-2.5,1.1c-0.6,0.4-1.3,1.3-1.7,1.9
		c-0.4,0.8-0.6,1.7-0.6,2.8c0,1.1,0.2,1.9,0.6,2.8c0.4,0.8,0.8,1.5,1.5,1.9c0.6,0.4,1.5,0.8,2.3,1.1s1.9,0.4,3.2,0.4s2.5,0,3.6-0.2
		c1.3-0.2,2.5-0.4,3-0.6c0.4,0,0.8-0.2,0.8-0.2c0.2,0,0.2-0.4,0.2-0.4v-10.8c0-2.3-0.6-4.2-1.9-5.3c-1.3-1.1-3.2-1.7-5.5-1.7
		c-0.8,0-2.3,0.2-3.2,0.2c0,0-2.5,0.4-3.6,1.3c0,0-0.2,0.2-0.2,0.4l0.8,2.3c0,0.2,0.4,0.2,0.4,0.2s0,0,0.2,0
		c2.3-1.3,5.1-1.3,5.1-1.3c1.3,0,2.3,0.2,3,0.8c0.6,0.4,1.1,1.3,1.1,2.8v0.4C198.7,246.9,197.6,246.9,197.6,246.9 M193,255.4
		c-0.4-0.4-0.6-0.4-0.6-0.6c-0.2-0.4-0.4-0.8-0.4-1.5c0-1.1,0.4-1.7,1.1-2.3c0,0,1.1-0.8,3.4-0.8c1.7,0,3.2,0.2,3.2,0.2v5.5
		c0,0-1.5,0.4-3.2,0.4C194,256.3,193,255.4,193,255.4"/>
	<path class="st11" d="M293.9,240.8c0-0.2,0-0.4-0.2-0.4c-0.2,0-1.3-0.2-1.9-0.4c-1.5,0-2.3,0.2-3,0.4c-0.6,0.4-1.5,0.8-1.9,1.5
		v-1.5c0-0.2-0.2-0.4-0.4-0.4h-3c-0.2,0-0.4,0.2-0.4,0.4v17.8c0,0.2,0.2,0.4,0.4,0.4h3.2c0.2,0,0.4-0.2,0.4-0.4v-8.9
		c0-1.3,0.2-2.3,0.4-3.2c0.2-0.6,0.6-1.3,1.1-1.7c0.4-0.4,0.8-0.6,1.5-0.8c0.6-0.2,1.3-0.2,1.7-0.2c0.6,0,1.3,0.2,1.3,0.2
		c0.2,0,0.4-0.2,0.4-0.4C293,242.7,293.7,241.2,293.9,240.8"/>
	<path class="st11" d="M264.4,232.5c-0.4-0.2-0.6-0.2-1.3-0.2c-0.4,0-1.1-0.2-1.7-0.2c-2.1,0-3.8,0.6-5.1,1.9
		c-1.3,1.3-1.9,3-2.3,5.3l-0.2,0.8H251c0,0-0.4,0-0.4,0.4l-0.4,2.5c0,0.2,0,0.4,0.4,0.4h2.5l-2.8,14.8c-0.2,1.3-0.4,2.1-0.6,3
		c-0.2,0.6-0.4,1.3-0.8,1.7c-0.2,0.4-0.6,0.6-1.1,0.8c-0.4,0.2-0.8,0.2-1.5,0.2c-0.2,0-0.6,0-1.1,0c-0.2,0-0.4-0.2-0.6-0.2
		c0,0-0.2-0.2-0.4,0.2c0,0.2-0.8,2.1-0.8,2.3c0,0.2,0,0.4,0.2,0.4c0.4,0.2,0.6,0.2,1.1,0.2c0.6,0.2,1.3,0.2,1.7,0.2
		c1.1,0,2.1-0.2,3-0.4c0.8-0.2,1.5-0.8,2.1-1.5c0.6-0.8,1.1-1.5,1.5-2.8c0.4-1.1,0.8-2.3,1.1-4l2.8-15.3h4c0,0,0.4,0,0.4-0.4
		l0.4-2.5c0-0.2,0-0.4-0.4-0.4h-3.8c0,0,0.2-1.5,0.6-2.8c0.2-0.6,0.6-1.1,0.8-1.3c0.2-0.2,0.6-0.4,1.1-0.6c0.4-0.2,0.8-0.2,1.3-0.2
		s0.6,0,1.1,0c0.4,0,0.4,0.2,0.6,0.2c0.4,0.2,0.4,0,0.4-0.2l0.8-2.5C264.8,232.7,264.4,232.5,264.4,232.5"/>
	<path class="st11" d="M211.2,258.4c0,0.2-0.2,0.4-0.4,0.4h-3.2c-0.2,0-0.4-0.2-0.4-0.4v-25.4c0-0.2,0.2-0.4,0.4-0.4h3.2
		c0.2,0,0.4,0.2,0.4,0.4V258.4z"/>
</g>
</svg>
